<?xml version="1.0" standalone="no"?><!DOCTYPE svg PUBLIC "-//W3C//DTD SVG 1.1//EN" "http://www.w3.org/Graphics/SVG/1.1/DTD/svg11.dtd"><svg t="1540891034356" class="icon" style="" viewBox="0 0 1024 1024" version="1.1" xmlns="http://www.w3.org/2000/svg" p-id="2805" xmlns:xlink="http://www.w3.org/1999/xlink" width="200" height="200"><defs><style type="text/css"></style></defs><path d="M839.344396 70.569242 183.788863 70.569242c-16.449647 0-119.18345 0-119.18345 117.614721l0 646.880967c0 117.611651 119.18345 117.611651 119.18345 117.611651l655.555533 0c34.370809 0 58.582233-9.897418 75.994812-23.864524 1.11438-0.818645 2.234901-1.638313 3.288906-2.51938 3.992941-3.439332 7.632841-7.126304 10.857279-10.94119 0.929162-1.105171 1.697665-2.269693 2.556219-3.435239 26.288736-33.95023 26.485211-76.850295 26.485211-76.850295L958.526823 188.184987C958.527846 70.569242 855.827813 70.569242 839.344396 70.569242zM190.689017 885.909945c-64.590064 0.062422-62.609966-59.674101-62.609966-59.674101l0-28.086685c26.802436-23.862477 110.590747-98.66309 146.941654-134.569882 4.695952-4.600785 11.180644-10.81123 18.302855-10.085706 7.510044 0.030699 14.376429 6.492878 14.442944 6.492878l2.394537 2.303462c0.795109 0.691755 80.08292 70.324672 118.224612 107.996666 23.254633 22.977317 47.084365 26.383904 61.937654 27.362184 32.868595-0.413416 54.653761-22.099321 54.81442-22.476921l61.686944-52.993958c6.356778-5.92392 12.298094-4.723581 21.179368 4.00829 23.063275 22.791076 102.826923 105.063871 155.947771 159.975505C644.934638 886.09721 243.937778 885.909945 190.689017 885.909945zM890.038986 828.379671c0 0-0.159636 33.385365-26.000164 49.399083-43.001373-44.542472-161.063279-166.694533-190.901865-196.136076-22.200628-21.912056-45.13292-26.859741-59.062164-26.13217-30.029944 0.409322-49.449225 19.006889-50.825572 20.614503l-61.780065 53.118801c-12.521175 11.727089-22.935362 1.480724-27.950586-3.499707-37.755905-37.292348-110.939695-101.724823-120.107495-109.761869-6.070252-5.990434-27.472702-24.747637-58.360176-25.472138-16.165168-0.786922-40.632419 4.25593-65.230654 28.529777-22.903639 22.599717-66.827011 62.571081-101.772918 93.999884L128.047328 192.185091c0.030699-57.844429 42.423205-57.844429 58.616002-57.844429l644.760676 0c16.22759 0 58.616002 0 58.616002 57.844429L890.040009 828.379671z" p-id="2806"></path><path d="M660.519592 249.842255c-83.437317 0-151.318334 67.081815-151.318334 149.512199 0 82.433454 67.915809 149.515269 151.318334 149.515269 83.438341 0 151.320381-67.082838 151.320381-149.515269C811.839972 316.924069 743.958956 249.842255 660.519592 249.842255zM660.519592 485.822804c-48.200792 0-87.427188-38.775118-87.427188-86.469374 0-47.695279 39.22742-86.467327 87.427188-86.467327 48.205908 0 87.433328 38.771025 87.433328 86.467327C747.95292 447.047686 708.726523 485.822804 660.519592 485.822804z" p-id="2807"></path></svg>